<?xml version="1.0" encoding="UTF-8"?>
<svg version="1.1" viewBox="0 0 700 500" xmlns="http://www.w3.org/2000/svg">
 <g>
  <path d="m227.46 245.04c-4.6211 0.007813-9.0547 1.8477-12.328 5.1133-3.2695 3.2656-5.1172 7.6953-5.1367 12.316v192.5c0 19.125 15.91 35 35.035 35h209.89c19.125 0 35.035-15.875 35.035-35v-192.5c-0.019532-4.6211-1.8633-9.0508-5.1367-12.316-3.2734-3.2656-7.7031-5.1055-12.328-5.1133zm140.04 157.5h52.465c4.6406-0.019531 9.1016 1.8086 12.395 5.0742 3.2969 3.2695 5.1562 7.7148 5.1758 12.355 0.015625 4.6641-1.8281 9.1445-5.125 12.445-3.3008 3.2969-7.7812 5.1406-12.445 5.125h-52.465c-4.6641 0.015625-9.1445-1.8281-12.441-5.125-3.3008-3.3008-5.1445-7.7812-5.1289-12.445 0.019531-4.6406 1.8828-9.0859 5.1758-12.355 3.293-3.2656 7.7539-5.0938 12.395-5.0742z"/>
  <path d="m474.97 245.16c-4.582-0.62891-9.2266 0.57812-12.922 3.3594-3.7227 2.7891-6.1836 6.9453-6.8359 11.551-0.65625 4.6055 0.55078 9.2812 3.3516 12.996l52.449 69.887h-0.003906c2.7891 3.7227 6.9453 6.1836 11.551 6.8398 4.6055 0.65234 9.2812-0.55469 12.996-3.3555 3.6875-2.7852 6.1211-6.9141 6.7734-11.488 0.65625-4.5742-0.52734-9.2188-3.2852-12.926l-52.578-70.016c-2.7734-3.7148-6.9102-6.1797-11.496-6.8477z"/>
  <path d="m238.05 248.52c-3.7148-2.8008-8.3906-4.0078-12.996-3.3516-4.6055 0.65234-8.7617 3.1133-11.551 6.8359l-52.449 70.016v0.003907c-2.7578 3.707-3.9414 8.3516-3.2852 12.926 0.65234 4.5742 3.0859 8.7031 6.7734 11.488 3.707 2.7617 8.3516 3.9414 12.926 3.2891 4.5742-0.65234 8.707-3.0859 11.492-6.7734l52.578-69.887h-0.003906c2.8008-3.7148 4.0078-8.3945 3.3555-12.996-0.65625-4.6055-3.1172-8.7617-6.8398-11.551z"/>
  <path d="m350.05 69.988c-4.6641-0.015625-9.1445 1.8281-12.441 5.125-3.3008 3.3008-5.1445 7.7812-5.1289 12.445v34.879c-0.015625 4.6641 1.8281 9.1445 5.1289 12.441 3.2969 3.3008 7.7773 5.1445 12.441 5.1289 4.6445-0.019531 9.0898-1.8789 12.359-5.1719 3.2695-3.2969 5.0977-7.7539 5.082-12.398v-34.879c0.015624-4.6445-1.8125-9.1016-5.082-12.398-3.2695-3.293-7.7148-5.1562-12.359-5.1719z"/>
  <path d="m446.29 95.824c-4.0117-2.3242-8.7773-2.9609-13.258-1.7773-4.4805 1.1875-8.3086 4.1016-10.641 8.1094l-17.57 30.359v-0.003906c-2.3125 4.0273-2.9336 8.8086-1.7227 13.289 1.2109 4.4805 4.1562 8.3008 8.1836 10.609 4.0234 2.3164 8.8047 2.9336 13.289 1.7227 4.4805-1.2109 8.2969-4.1562 10.609-8.1836l17.441-30.23-0.003906 0.003906c2.3281-4.0117 2.9648-8.7812 1.7773-13.262-1.1836-4.4805-4.1016-8.3047-8.1055-10.641z"/>
  <path d="m492.8 159.9-30.359 17.441h0.003906c-4.0078 2.332-6.9219 6.1602-8.1094 10.641s-0.54688 9.25 1.7773 13.258c2.3125 4.0273 6.1289 6.9727 10.613 8.1836 4.4805 1.2109 9.2617 0.59375 13.285-1.7227l30.359-17.57v0.003906c4.0039-2.3359 6.9219-6.1602 8.1055-10.641 1.1875-4.4805 0.55078-9.25-1.7773-13.258-2.332-4.0078-6.1602-6.9219-10.641-8.1094-4.4805-1.1875-9.2461-0.54688-13.258 1.7773z"/>
  <path d="m266.98 94.016c-4.457-1.1523-9.1914-0.50391-13.176 1.8086-4.0273 2.3086-6.9688 6.1289-8.1797 10.609-1.2109 4.4844-0.59375 9.2617 1.7227 13.289l17.441 30.23-0.003907-0.003906c2.3125 4.0273 6.1289 6.9727 10.609 8.1836 4.4844 1.2109 9.2656 0.59375 13.289-1.7188 4.0273-2.3125 6.9727-6.1289 8.1836-10.613 1.2109-4.4805 0.58984-9.2617-1.7227-13.289l-17.441-30.359v0.003906c-2.3438-4.0352-6.2031-6.9648-10.723-8.1406z"/>
  <path d="m193.87 158.09c-4.4688 1.2031-8.2773 4.1289-10.59 8.1367-2.3164 4.0273-2.9336 8.8047-1.7227 13.289 1.2109 4.4805 4.1523 8.2969 8.1797 10.609l30.23 17.57c4.0234 2.3125 8.8047 2.9336 13.289 1.7188 4.4805-1.2109 8.2969-4.1562 10.609-8.1836 2.3242-4.0078 2.9648-8.7773 1.7773-13.258-1.1875-4.4805-4.1016-8.3047-8.1094-10.641l-30.359-17.441 0.003906 0.003907c-4.0195-2.3477-8.8086-2.9961-13.309-1.8047z"/>
 </g>
</svg>
